<svg width="27" height="20" viewBox="0 0 27 20" fill="none" xmlns="http://www.w3.org/2000/svg">
<path d="M15.9545 5.89091C15.9545 5.76818 15.9955 5.65057 16.0773 5.53807C16.1591 5.42557 16.2511 5.34886 16.3534 5.30795C16.967 5.08295 17.596 4.90909 18.2403 4.78636C18.8847 4.66364 19.5545 4.60227 20.25 4.60227C20.7 4.60227 21.1398 4.62784 21.5693 4.67898C21.9989 4.73011 22.4182 4.80682 22.8273 4.90909C22.95 4.95 23.0625 5.0267 23.1648 5.1392C23.267 5.2517 23.3182 5.37955 23.3182 5.52273C23.3182 5.74773 23.2415 5.92159 23.0881 6.04432C22.9347 6.16705 22.7455 6.19773 22.5205 6.13636C22.1727 6.03409 21.8097 5.95739 21.4312 5.90625C21.0528 5.85511 20.6591 5.82955 20.25 5.82955C19.6568 5.82955 19.0841 5.8858 18.5318 5.9983C17.9795 6.1108 17.4375 6.27955 16.9057 6.50455C16.6193 6.60682 16.3892 6.60171 16.2153 6.48921C16.0415 6.37671 15.9545 6.17727 15.9545 5.89091ZM15.9545 12.6409C15.9545 12.5182 15.9955 12.3955 16.0773 12.2727C16.1591 12.15 16.2511 12.0682 16.3534 12.0273C16.967 11.8023 17.596 11.6335 18.2403 11.521C18.8847 11.4085 19.5545 11.3523 20.25 11.3523C20.7 11.3523 21.1398 11.3778 21.5693 11.429C21.9989 11.4801 22.4182 11.5568 22.8273 11.6591C22.95 11.7 23.0625 11.7767 23.1648 11.8892C23.267 12.0017 23.3182 12.1295 23.3182 12.2727C23.3182 12.4977 23.2415 12.6716 23.0881 12.7943C22.9347 12.917 22.7455 12.9477 22.5205 12.8864C22.1727 12.7841 21.8097 12.7074 21.4312 12.6562C21.0528 12.6051 20.6591 12.5795 20.25 12.5795C19.6568 12.5795 19.0841 12.6307 18.5318 12.733C17.9795 12.8352 17.4375 12.9989 16.9057 13.2239C16.6193 13.3261 16.3892 13.3261 16.2153 13.2239C16.0415 13.1216 15.9545 12.9273 15.9545 12.6409ZM15.9545 9.26591C15.9545 9.14318 15.9955 9.02557 16.0773 8.91307C16.1591 8.80057 16.2511 8.72386 16.3534 8.68295C16.967 8.45795 17.596 8.28409 18.2403 8.16136C18.8847 8.03864 19.5545 7.97727 20.25 7.97727C20.7 7.97727 21.1398 8.00284 21.5693 8.05398C21.9989 8.10511 22.4182 8.18182 22.8273 8.28409C22.95 8.325 23.0625 8.4017 23.1648 8.5142C23.267 8.62671 23.3182 8.75455 23.3182 8.89773C23.3182 9.12273 23.2415 9.29659 23.0881 9.41932C22.9347 9.54205 22.7455 9.57273 22.5205 9.51136C22.1727 9.40909 21.8097 9.33239 21.4312 9.28125C21.0528 9.23011 20.6591 9.20455 20.25 9.20455C19.6568 9.20455 19.0841 9.2608 18.5318 9.3733C17.9795 9.4858 17.4375 9.65455 16.9057 9.87955C16.6193 9.98182 16.3892 9.97671 16.2153 9.86421C16.0415 9.75171 15.9545 9.55227 15.9545 9.26591ZM6.38182 15.3409C7.48636 15.3409 8.55511 15.4688 9.58807 15.7244C10.621 15.9801 11.6386 16.3636 12.6409 16.875V3.77386C11.7205 3.16023 10.7233 2.68466 9.64943 2.34716C8.57557 2.00966 7.48636 1.84091 6.38182 1.84091C5.60455 1.84091 4.84261 1.93807 4.09602 2.13239C3.34943 2.3267 2.59773 2.56705 1.84091 2.85341V16.1693C2.475 15.883 3.19602 15.6733 4.00398 15.5403C4.81193 15.4074 5.60455 15.3409 6.38182 15.3409ZM14.4818 16.875C15.5045 16.3636 16.5068 15.9801 17.4886 15.7244C18.4705 15.4688 19.5136 15.3409 20.6182 15.3409C21.3955 15.3409 22.1983 15.4023 23.0267 15.525C23.8551 15.6477 24.5659 15.8114 25.1591 16.0159V2.85341C24.4636 2.50568 23.7273 2.25 22.95 2.08636C22.1727 1.92273 21.3955 1.84091 20.6182 1.84091C19.5136 1.84091 18.4449 2.00966 17.4119 2.34716C16.379 2.68466 15.4023 3.16023 14.4818 3.77386V16.875ZM13.5614 19.2989C13.3977 19.2989 13.2494 19.2835 13.1165 19.2528C12.9835 19.2222 12.8659 19.1659 12.7636 19.0841C11.8023 18.4909 10.7795 18.0307 9.69545 17.7034C8.61136 17.3761 7.50682 17.2125 6.38182 17.2125C5.625 17.2125 4.88864 17.3045 4.17273 17.4886C3.45682 17.6727 2.74091 17.8977 2.025 18.1636C1.55455 18.3886 1.09943 18.358 0.659659 18.0716C0.219886 17.7852 0 17.3761 0 16.8443V2.63864C0 2.33182 0.0715908 2.05057 0.214773 1.79489C0.357955 1.5392 0.572727 1.33977 0.859091 1.19659C1.71818 0.7875 2.61307 0.485796 3.54375 0.291478C4.47443 0.0971593 5.42045 0 6.38182 0C7.67045 0 8.9233 0.173864 10.1403 0.521591C11.3574 0.869318 12.4977 1.40114 13.5614 2.11705C14.6045 1.40114 15.7244 0.869318 16.921 0.521591C18.1176 0.173864 19.35 0 20.6182 0C21.5795 0 22.5205 0.0971593 23.4409 0.291478C24.3614 0.485796 25.2511 0.7875 26.1102 1.19659C26.3966 1.33977 26.6165 1.5392 26.7699 1.79489C26.9233 2.05057 27 2.33182 27 2.63864V16.8443C27 17.417 26.7699 17.8517 26.3097 18.1483C25.8494 18.4449 25.3943 18.45 24.9443 18.1636C24.2489 17.8773 23.5432 17.6472 22.8273 17.4733C22.1114 17.2994 21.375 17.2125 20.6182 17.2125C19.5136 17.2125 18.4295 17.3761 17.3659 17.7034C16.3023 18.0307 15.3 18.4909 14.3591 19.0841C14.2568 19.1659 14.1392 19.2222 14.0063 19.2528C13.8733 19.2835 13.725 19.2989 13.5614 19.2989Z" fill="url(#paint0_linear_13_5)"/>
<defs>
<linearGradient id="paint0_linear_13_5" x1="13.5" y1="0" x2="13.5" y2="19.2989" gradientUnits="userSpaceOnUse">
<stop stop-color="#614385"/>
<stop offset="1" stop-color="#516395"/>
</linearGradient>
</defs>
</svg>
