<svg width="27" height="25" viewBox="0 0 27 25" fill="none" xmlns="http://www.w3.org/2000/svg">
<path d="M15.2898 24.9121C14.8123 24.9121 14.4646 24.7564 14.2466 24.445C14.0286 24.1336 14.0027 23.7495 14.1687 23.2928L18.7463 11.1481C18.8709 10.816 19.0992 10.5357 19.4314 10.3074C19.7636 10.079 20.1061 9.96482 20.459 9.96482C20.8119 9.96482 21.1597 10.079 21.5022 10.3074C21.8448 10.5357 22.0783 10.816 22.2029 11.1481L26.8739 23.1682C27.0607 23.6457 27.04 24.0557 26.8116 24.3982C26.5832 24.7408 26.1992 24.9121 25.6594 24.9121C25.4311 24.9121 25.2131 24.8394 25.0055 24.6941C24.7979 24.5488 24.6526 24.3619 24.5695 24.1336L23.5419 20.9884H17.563L16.3797 24.1647C16.2966 24.3723 16.1513 24.5488 15.9437 24.6941C15.7361 24.8394 15.5181 24.9121 15.2898 24.9121ZM18.2481 18.8086H22.67L20.4902 12.7674H20.4279L18.2481 18.8086ZM7.75388 8.1587C8.06528 8.69846 8.40782 9.22265 8.7815 9.73127C9.15518 10.2399 9.56 10.7641 9.99596 11.3038C10.9302 10.3281 11.7087 9.31607 12.3315 8.26769C12.9543 7.21931 13.4837 6.12421 13.9196 4.98241H1.2456C0.892682 4.98241 0.596851 4.86304 0.358111 4.6243C0.11937 4.38556 0 4.08973 0 3.73681C0 3.38389 0.11937 3.08806 0.358111 2.84932C0.596851 2.61058 0.892682 2.49121 1.2456 2.49121H8.71922V1.2456C8.71922 0.892682 8.83859 0.596851 9.07733 0.358111C9.31607 0.11937 9.6119 0 9.96482 0C10.3177 0 10.6136 0.11937 10.8523 0.358111C11.0911 0.596851 11.2104 0.892682 11.2104 1.2456V2.49121H18.684C19.037 2.49121 19.3328 2.61058 19.5715 2.84932C19.8103 3.08806 19.9296 3.38389 19.9296 3.73681C19.9296 4.08973 19.8103 4.38556 19.5715 4.6243C19.3328 4.86304 19.037 4.98241 18.684 4.98241H16.4108C15.9541 6.41485 15.3469 7.82135 14.5891 9.20189C13.8314 10.5824 12.9024 11.8955 11.8021 13.1411L14.8538 16.224L13.9196 18.7463L9.96482 14.9472L4.57759 20.3345C4.34923 20.5628 4.06897 20.677 3.73681 20.677C3.40465 20.677 3.12439 20.5524 2.89603 20.3033C2.64691 20.075 2.52235 19.7947 2.52235 19.4625C2.52235 19.1304 2.64691 18.8397 2.89603 18.5906L8.37668 13.11C7.83692 12.4664 7.3283 11.8177 6.85082 11.1637C6.37333 10.5098 5.93737 9.84026 5.54293 9.15518C5.29381 8.69846 5.27305 8.30402 5.48065 7.97186C5.68825 7.6397 6.06193 7.47362 6.6017 7.47362C6.83006 7.47362 7.05323 7.54109 7.27121 7.67603C7.48919 7.81097 7.65008 7.97186 7.75388 8.1587Z" fill="url(#paint0_linear_13_3)"/>
<defs>
<linearGradient id="paint0_linear_13_3" x1="13.5" y1="0" x2="13.5" y2="24.9121" gradientUnits="userSpaceOnUse">
<stop stop-color="#614385"/>
<stop offset="1" stop-color="#516395"/>
</linearGradient>
</defs>
</svg>
