<svg width="248" height="37" viewBox="0 0 248 37" fill="none" xmlns="http://www.w3.org/2000/svg">
<path d="M20.608 11.68C20.448 12 19.936 12.88 19.072 14.32C19.872 14.8 20.432 15.104 20.752 15.232C22.448 15.872 23.712 16.848 24.544 18.16C25.408 19.44 25.84 20.864 25.84 22.432C25.84 23.968 25.44 25.488 24.64 26.992C22.656 30.672 19.456 33.616 15.04 35.824C13.952 36.368 12.88 36.64 11.824 36.64C10.288 36.64 8.864 36.096 7.552 35.008C7.04 34.592 6.432 34.128 5.728 33.616C5.664 33.808 5.584 34.032 5.488 34.288C5.424 34.576 5.344 34.784 5.248 34.912C4.864 35.488 4.384 35.776 3.808 35.776C3.296 35.776 2.832 35.568 2.416 35.152C1.264 34.096 0.688 32.896 0.688 31.552C0.688 30.528 0.672 29.632 0.64 28.864C0.608 28.096 0.576 27.456 0.544 26.944C0.512 26.304 0.48 25.504 0.448 24.544C0.416 23.584 0.4 22.464 0.4 21.184C0.4 18.752 0.528 16.576 0.784 14.656C1.136 11.84 1.808 9.2 2.8 6.736C3.568 4.88 4.704 3.424 6.208 2.368C7.744 1.312 9.552 0.687999 11.632 0.495999C12.592 0.431998 13.328 0.399998 13.84 0.399998C16.208 0.399998 18.192 0.911998 19.792 1.936C20.624 2.448 21.264 3.12 21.712 3.952C22.192 4.784 22.432 5.68 22.432 6.64C22.432 7.44 22.256 8.24 21.904 9.04L21.424 10C21.2 10.512 20.928 11.072 20.608 11.68ZM16.816 7.696C16.976 7.28 17.12 6.592 17.248 5.632L17.392 4.576C16.432 4.16 15.52 3.952 14.656 3.952C13.92 3.952 13.232 4.064 12.592 4.288C11.216 4.736 10.064 5.424 9.136 6.352C8.24 7.248 7.52 8.24 6.976 9.328C6.464 10.416 5.952 11.76 5.44 13.36C5.056 14.608 4.864 16 4.864 17.536C4.864 18.368 4.928 19.584 5.056 21.184C5.12 21.664 5.184 22.448 5.248 23.536C5.28 24.4 5.456 26.176 5.776 28.864L5.968 30.448C6.16 30.512 6.48 30.576 6.928 30.64C7.536 30.704 8 30.832 8.32 31.024C8.608 31.184 8.896 31.456 9.184 31.84C9.472 32.192 9.696 32.464 9.856 32.656C11.776 32.272 13.408 31.488 14.752 30.304C16.128 29.12 17.472 27.584 18.784 25.696C19.776 24.16 20.4 22.784 20.656 21.568C20.752 21.088 20.8 20.656 20.8 20.272C20.8 19.408 20.56 18.752 20.08 18.304C19.632 17.856 19.008 17.632 18.208 17.632C17.728 17.632 17.28 17.696 16.864 17.824C15.424 18.24 13.952 19.152 12.448 20.56C11.68 21.232 10.912 21.568 10.144 21.568C9.664 21.568 9.168 21.424 8.656 21.136C8.048 20.784 7.536 20.4 7.12 19.984C6.704 19.568 6.352 19.024 6.064 18.352L7.168 17.584C8.32 16.752 9.2 16.16 9.808 15.808C12.912 14.144 15.248 11.44 16.816 7.696ZM31.7864 29.152C31.8504 28.704 31.8824 28.048 31.8824 27.184L31.8344 24.352L31.2584 16L31.2104 15.28C31.2104 13.584 31.9304 12.736 33.3704 12.736C33.7224 12.736 34.0264 12.864 34.2824 13.12C34.5704 13.376 34.8264 13.504 35.0504 13.504C35.5304 13.504 35.9464 13.296 36.2984 12.88C36.6824 12.432 37.0824 11.984 37.4984 11.536C38.1704 10.832 38.9544 10.272 39.8504 9.856C40.7784 9.44 41.7064 9.232 42.6344 9.232C43.5304 9.232 44.2504 9.344 44.7944 9.568C44.9544 9.632 45.1304 9.776 45.3224 10C45.5464 10.192 45.6584 10.352 45.6584 10.48C45.6584 10.608 45.5624 10.8 45.3704 11.056C45.2104 11.28 45.0664 11.408 44.9384 11.44C43.6904 11.696 42.6024 12.224 41.6744 13.024C40.7784 13.824 40.1864 14.56 39.8984 15.232C39.6424 15.872 39.2584 17.072 38.7464 18.832C38.4584 19.824 38.2344 20.848 38.0744 21.904C37.9464 22.928 37.8984 24.24 37.9304 25.84C37.8984 26 37.8824 26.224 37.8824 26.512C37.8824 26.928 37.9144 27.488 37.9784 28.192C38.0424 28.96 38.0744 29.504 38.0744 29.824C38.0744 31.424 37.8984 32.336 37.5464 32.56C37.0344 32.816 36.3624 32.944 35.5304 32.944C34.8584 32.944 34.3144 32.864 33.8984 32.704C32.4584 32.16 31.7384 31.168 31.7384 29.728C31.7384 29.472 31.7544 29.28 31.7864 29.152ZM50.8874 13.84C51.6874 14.064 52.2474 14.336 52.5674 14.656C52.9194 14.976 53.0954 15.408 53.0954 15.952C53.0954 16.208 53.0474 16.544 52.9514 16.96C52.5994 18.4 52.4074 19.84 52.3754 21.28C52.3434 22.912 52.5994 24.416 53.1434 25.792C53.3354 26.272 53.5114 26.624 53.6714 26.848C53.8634 27.04 54.0874 27.136 54.3434 27.136C54.6634 27.136 55.0794 26.848 55.5914 26.272C56.7754 24.864 57.6554 23.456 58.2314 22.048C58.8074 20.64 59.1594 19.184 59.2874 17.68C59.3834 16.688 59.5434 16.064 59.7674 15.808C59.8954 15.68 60.1034 15.6 60.3914 15.568C60.6794 15.536 61.0954 15.52 61.6394 15.52C62.5034 15.584 63.0954 15.664 63.4154 15.76C63.7674 15.856 64.0074 16.016 64.1354 16.24C64.2634 16.464 64.3274 16.832 64.3274 17.344L64.2794 19.6C64.2794 20.08 64.2634 20.784 64.2314 21.712C64.1354 24.592 64.0554 26.736 63.9914 28.144C63.9594 29.264 63.6234 30.672 62.9834 32.368C62.9194 32.464 62.7434 32.608 62.4554 32.8C62.1674 32.96 61.9114 33.056 61.6874 33.088C61.6234 33.088 61.4794 32.992 61.2554 32.8C61.0634 32.576 60.9194 32.384 60.8234 32.224C60.5994 31.712 60.3434 31.024 60.0554 30.16L59.6714 29.248L59.5754 28.96L59.4314 29.104L58.6634 29.584C58.2794 29.904 57.8634 30.16 57.4154 30.352C56.6794 30.8 55.7994 31.024 54.7754 31.024C53.4954 31.024 52.2794 30.672 51.1274 29.968C49.9754 29.232 49.0634 28.24 48.3914 26.992C47.3034 25.072 46.7594 22.848 46.7594 20.32C46.7594 19.04 46.9354 17.424 47.2874 15.472C47.3514 14.992 47.6554 14.576 48.1994 14.224C48.6794 13.872 49.2394 13.696 49.8794 13.696C50.1994 13.696 50.5354 13.744 50.8874 13.84ZM77.2206 15.904C77.2206 16.096 77.1886 16.352 77.1246 16.672C77.0606 16.96 77.0446 17.152 77.0766 17.248C79.2846 16.768 81.1566 16.528 82.6926 16.528C85.0926 16.528 86.9006 17.68 88.1166 19.984C89.1086 21.936 89.6046 24.096 89.6046 26.464C89.6046 27.072 89.5406 27.952 89.4126 29.104C89.3166 29.872 89.0126 30.496 88.5006 30.976C87.9886 31.424 87.3806 31.648 86.6766 31.648C85.9406 31.648 85.4126 31.52 85.0926 31.264C84.8046 30.976 84.6286 30.656 84.5646 30.304C84.5326 29.952 84.5166 29.392 84.5166 28.624L84.4686 27.616C84.4046 25.696 84.2766 24.032 84.0846 22.624C83.9886 22.048 83.7646 21.648 83.4126 21.424C83.0926 21.168 82.6606 21.04 82.1166 21.04C81.6046 21.04 80.9966 21.12 80.2926 21.28C79.2046 21.568 78.4686 21.792 78.0846 21.952C77.7326 22.112 77.2046 22.448 76.5006 22.96C76.2766 23.12 76.1166 23.44 76.0206 23.92C75.9246 24.4 75.8766 24.672 75.8766 24.736C75.4606 26.784 75.0126 29.232 74.5326 32.08C74.5006 32.208 74.4366 32.512 74.3406 32.992C74.2446 33.472 74.0526 33.808 73.7646 34C73.5086 34.224 73.1246 34.304 72.6126 34.24C70.5966 33.984 69.5726 33.136 69.5406 31.696C69.5086 29.84 69.6526 27.648 69.9726 25.12C70.1966 23.296 70.4046 21.824 70.5966 20.704C70.6606 20.192 70.7406 19.568 70.8366 18.832C70.9646 18.096 71.0766 17.248 71.1726 16.288C71.2686 15.552 71.3646 15.008 71.4606 14.656C71.5566 14.304 71.7806 14.016 72.1326 13.792C72.4846 13.536 73.0286 13.408 73.7646 13.408C74.6926 13.408 75.4606 13.616 76.0686 14.032C76.6766 14.448 77.0606 15.04 77.2206 15.808V15.904ZM109.744 17.728C110.032 18.304 110.288 18.96 110.512 19.696C110.768 20.4 110.944 20.864 111.04 21.088L111.472 22.336C111.088 24.16 110.704 25.664 110.32 26.848C109.936 28 109.376 29.088 108.64 30.112C107.904 31.104 106.896 31.92 105.616 32.56C104.432 33.168 103.168 33.472 101.824 33.472C100.352 33.472 98.9276 33.136 97.5516 32.464C96.2076 31.792 95.0716 30.864 94.1436 29.68C93.2156 28.464 92.6716 27.104 92.5116 25.6C92.4476 24.832 92.4156 24.24 92.4156 23.824C92.4156 22.704 92.5756 21.68 92.8956 20.752C93.2476 19.824 93.8556 18.976 94.7196 18.208C94.9756 17.984 95.2636 17.552 95.5836 16.912C95.8716 16.336 96.1436 15.904 96.3996 15.616C97.7436 14.176 99.3436 13.456 101.2 13.456C102.128 13.456 103.216 13.664 104.464 14.08C104.624 14.144 105.152 14.336 106.048 14.656C106.976 14.976 107.744 15.392 108.352 15.904C108.96 16.416 109.424 17.024 109.744 17.728ZM101.392 16.144C100.208 17.104 99.3596 18.256 98.8476 19.6C98.3676 20.912 97.9356 22.688 97.5516 24.928C97.6156 25.184 97.7596 25.728 97.9836 26.56C98.2076 27.392 98.4796 28.16 98.7996 28.864C99.1516 29.728 99.7756 30.16 100.672 30.16C100.832 30.16 101.136 30.128 101.584 30.064C102.576 29.872 103.44 29.312 104.176 28.384C104.944 27.424 105.536 26.304 105.952 25.024C106.368 23.744 106.576 22.56 106.576 21.472C106.576 19.328 105.696 17.52 103.936 16.048C103.488 15.696 103.088 15.52 102.736 15.52C102.352 15.52 101.904 15.728 101.392 16.144ZM134.563 32.944C133.891 33.136 133.267 33.232 132.691 33.232C131.155 33.232 129.683 32.56 128.275 31.216C128.467 30.512 128.787 30 129.235 29.68C129.683 29.328 130.131 29.056 130.579 28.864C131.027 28.672 131.331 28.544 131.491 28.48C133.219 27.744 135.027 27.104 136.915 26.56C137.715 26.304 138.211 25.792 138.403 25.024C138.979 23.072 139.427 21.152 139.747 19.264C140.067 17.344 140.451 14.768 140.899 11.536L141.091 10.048C141.123 9.952 141.139 9.808 141.139 9.616C141.139 8.944 140.803 8.48 140.131 8.224C139.907 8.128 139.651 7.968 139.363 7.744C139.075 7.488 138.851 7.296 138.691 7.168L137.539 7.744C136.611 8.16 135.555 8.672 134.371 9.28C133.955 9.504 133.523 9.616 133.075 9.616C132.595 9.616 132.083 9.504 131.539 9.28C131.027 9.024 130.723 8.88 130.627 8.848C130.339 8.72 130.099 8.528 129.907 8.272C129.747 8.016 129.667 7.744 129.667 7.456C129.667 7.072 129.795 6.704 130.051 6.352C130.403 5.84 130.947 5.312 131.683 4.768C134.563 2.624 137.603 1.552 140.803 1.552C142.275 1.552 143.731 1.76 145.171 2.176C146.515 2.592 147.683 2.944 148.675 3.232C149.699 3.488 150.547 3.712 151.219 3.904L154.243 4.768C154.307 4.768 154.435 4.784 154.627 4.816C154.851 4.848 155.011 4.912 155.107 5.008C155.299 5.168 155.491 5.392 155.683 5.68C155.907 5.936 156.083 6.144 156.211 6.304C156.051 6.432 155.827 6.624 155.539 6.88C155.283 7.136 155.043 7.264 154.819 7.264C154.563 7.296 154.163 7.312 153.619 7.312C153.203 7.312 152.579 7.28 151.747 7.216L150.691 7.168L147.283 6.784L147.043 8.512C146.627 11.52 146.259 13.904 145.939 15.664C145.683 17.2 145.267 19.264 144.691 21.856L144.115 24.688C146.291 24.4 147.763 24.208 148.531 24.112C150.259 23.92 151.555 23.824 152.419 23.824C153.475 23.824 154.355 23.968 155.059 24.256C155.763 24.544 156.259 25.136 156.547 26.032C156.227 26.448 155.859 26.752 155.443 26.944C155.059 27.136 154.659 27.28 154.243 27.376C153.859 27.472 153.619 27.536 153.523 27.568L152.611 27.856C150.691 28.432 149.379 28.768 148.675 28.864C147.171 29.088 145.699 29.408 144.259 29.824C142.851 30.24 141.091 30.8 138.979 31.504C137.603 32.016 136.131 32.496 134.563 32.944ZM165.449 35.056C162.761 35.056 161.049 33.904 160.313 31.6C160.569 31.6 160.905 31.616 161.321 31.648C161.769 31.648 162.137 31.68 162.425 31.744C162.873 31.808 163.193 31.84 163.385 31.84C164.825 31.84 166.025 31.2 166.985 29.92C167.657 28.992 167.993 28.048 167.993 27.088C167.993 26.448 167.833 25.824 167.513 25.216C166.809 23.968 165.945 22.592 164.921 21.088C164.249 20.096 163.641 19.152 163.097 18.256C162.457 17.232 162.137 16.096 162.137 14.848C162.137 13.696 162.457 12.688 163.097 11.824C163.769 10.928 164.745 10.368 166.025 10.144L167.561 9.856C169.225 9.536 170.473 9.376 171.305 9.376C172.681 9.376 173.897 9.696 174.953 10.336C175.177 10.496 175.401 10.784 175.625 11.2C175.881 11.584 176.073 11.888 176.201 12.112C175.977 12.208 175.657 12.368 175.241 12.592C174.857 12.784 174.521 12.896 174.233 12.928C173.785 12.992 173.113 13.024 172.217 13.024C171.353 13.024 170.697 13.04 170.249 13.072C169.225 13.168 168.409 13.52 167.801 14.128C167.225 14.704 166.937 15.408 166.937 16.24C166.937 16.88 167.129 17.536 167.513 18.208C168.377 19.648 169.577 21.296 171.113 23.152C172.265 24.592 172.841 26.08 172.841 27.616C172.841 28.448 172.649 29.328 172.265 30.256C170.953 33.456 168.681 35.056 165.449 35.056ZM188.625 12.688C190.097 12.688 191.297 13.12 192.225 13.984C193.185 14.816 193.841 15.936 194.193 17.344C194.385 18.112 194.449 18.976 194.385 19.936C194.353 20.48 194.321 21.248 194.289 22.24C194.257 23.072 194.145 24.304 193.953 25.936C193.761 27.536 193.649 28.736 193.617 29.536C193.585 30.112 193.569 30.96 193.569 32.08L193.617 35.968C193.009 36.224 192.465 36.352 191.985 36.352C191.505 36.352 191.009 36.192 190.497 35.872C190.145 35.616 189.905 35.456 189.777 35.392C189.681 35.328 189.537 35.056 189.345 34.576L188.961 33.664L188.721 32.56C186.929 32.944 185.873 33.168 185.553 33.232C185.105 33.264 184.753 33.28 184.497 33.28C183.313 33.28 182.161 32.992 181.041 32.416C179.953 31.84 179.073 31.04 178.401 30.016C177.761 28.992 177.425 27.888 177.393 26.704C177.361 25.584 177.761 24.688 178.593 24.016C180.353 22.608 182.065 21.904 183.729 21.904C184.561 21.904 185.441 22.096 186.369 22.48C186.849 22.672 187.873 23.104 189.441 23.776L189.633 22.432C189.825 21.28 189.921 20.352 189.921 19.648C189.921 18.592 189.681 17.6 189.201 16.672C188.721 16.512 188.369 16.464 188.145 16.528C187.313 16.656 186.481 16.832 185.649 17.056C184.817 17.248 183.681 17.344 182.241 17.344C181.857 17.344 181.473 17.2 181.089 16.912C180.705 16.592 180.529 16.24 180.561 15.856C180.657 15.344 180.945 14.768 181.425 14.128C181.713 13.776 182.113 13.568 182.625 13.504C183.233 13.408 183.729 13.344 184.113 13.312C186.097 12.896 187.601 12.688 188.625 12.688ZM184.545 29.344C185.313 29.12 185.953 28.864 186.465 28.576C186.977 28.256 187.425 27.792 187.809 27.184C186.657 26.288 185.777 25.664 185.169 25.312C184.561 24.96 183.969 24.784 183.393 24.784C183.169 24.784 182.897 24.832 182.577 24.928C182.257 25.024 182.017 25.168 181.857 25.36C181.569 25.712 181.425 26.208 181.425 26.848C181.425 27.424 181.537 27.92 181.761 28.336C182.017 28.688 182.337 28.96 182.721 29.152C183.105 29.344 183.505 29.44 183.921 29.44C184.049 29.44 184.257 29.408 184.545 29.344ZM203.99 11.632C203.926 11.824 203.686 12.032 203.27 12.256C202.886 12.48 202.566 12.688 202.31 12.88L200.966 12.16C199.654 11.456 198.758 10.896 198.278 10.48C198.022 10.288 197.894 10.048 197.894 9.76C197.894 9.568 197.958 9.408 198.086 9.28C198.246 9.12 198.47 9.04 198.758 9.04C200.006 9.04 201.526 9.36 203.318 10C203.51 10.032 203.686 10.256 203.846 10.672C204.006 11.056 204.054 11.376 203.99 11.632ZM199.67 20.56C199.766 20.144 199.83 19.84 199.862 19.648C199.894 19.456 199.91 19.248 199.91 19.024C199.91 18.576 200.038 18.224 200.294 17.968C200.582 17.712 201.11 17.584 201.878 17.584C202.774 17.584 203.558 17.872 204.23 18.448C204.934 18.992 205.366 19.712 205.526 20.608C205.622 21.056 205.686 21.552 205.718 22.096C205.75 22.64 205.766 22.992 205.766 23.152L206.438 31.36C206.534 32.224 206.406 32.896 206.054 33.376C205.734 33.824 205.11 34.048 204.182 34.048C203.382 34.048 202.694 33.824 202.118 33.376C201.574 32.928 201.238 32.352 201.11 31.648L199.862 21.472L199.67 20.56ZM221.485 12.688C222.957 12.688 224.157 13.12 225.085 13.984C226.045 14.816 226.701 15.936 227.053 17.344C227.245 18.112 227.309 18.976 227.245 19.936C227.213 20.48 227.181 21.248 227.149 22.24C227.117 23.072 227.005 24.304 226.813 25.936C226.621 27.536 226.509 28.736 226.477 29.536C226.445 30.112 226.429 30.96 226.429 32.08L226.477 35.968C225.869 36.224 225.325 36.352 224.845 36.352C224.365 36.352 223.869 36.192 223.357 35.872C223.005 35.616 222.765 35.456 222.637 35.392C222.541 35.328 222.397 35.056 222.205 34.576L221.821 33.664L221.581 32.56C219.789 32.944 218.733 33.168 218.413 33.232C217.965 33.264 217.613 33.28 217.357 33.28C216.173 33.28 215.021 32.992 213.901 32.416C212.813 31.84 211.933 31.04 211.261 30.016C210.621 28.992 210.285 27.888 210.253 26.704C210.221 25.584 210.621 24.688 211.453 24.016C213.213 22.608 214.925 21.904 216.589 21.904C217.421 21.904 218.301 22.096 219.229 22.48C219.709 22.672 220.733 23.104 222.301 23.776L222.493 22.432C222.685 21.28 222.781 20.352 222.781 19.648C222.781 18.592 222.541 17.6 222.061 16.672C221.581 16.512 221.229 16.464 221.005 16.528C220.173 16.656 219.341 16.832 218.509 17.056C217.677 17.248 216.541 17.344 215.101 17.344C214.717 17.344 214.333 17.2 213.949 16.912C213.565 16.592 213.389 16.24 213.421 15.856C213.517 15.344 213.805 14.768 214.285 14.128C214.573 13.776 214.973 13.568 215.485 13.504C216.093 13.408 216.589 13.344 216.973 13.312C218.957 12.896 220.461 12.688 221.485 12.688ZM217.405 29.344C218.173 29.12 218.813 28.864 219.325 28.576C219.837 28.256 220.285 27.792 220.669 27.184C219.517 26.288 218.637 25.664 218.029 25.312C217.421 24.96 216.829 24.784 216.253 24.784C216.029 24.784 215.757 24.832 215.437 24.928C215.117 25.024 214.877 25.168 214.717 25.36C214.429 25.712 214.285 26.208 214.285 26.848C214.285 27.424 214.397 27.92 214.621 28.336C214.877 28.688 215.197 28.96 215.581 29.152C215.965 29.344 216.365 29.44 216.781 29.44C216.909 29.44 217.117 29.408 217.405 29.344ZM236.418 35.056C233.73 35.056 232.018 33.904 231.282 31.6C231.538 31.6 231.874 31.616 232.29 31.648C232.738 31.648 233.106 31.68 233.394 31.744C233.842 31.808 234.162 31.84 234.354 31.84C235.794 31.84 236.994 31.2 237.954 29.92C238.626 28.992 238.962 28.048 238.962 27.088C238.962 26.448 238.802 25.824 238.482 25.216C237.778 23.968 236.914 22.592 235.89 21.088C235.218 20.096 234.61 19.152 234.066 18.256C233.426 17.232 233.105 16.096 233.105 14.848C233.105 13.696 233.426 12.688 234.066 11.824C234.738 10.928 235.714 10.368 236.993 10.144L238.53 9.856C240.194 9.536 241.442 9.376 242.273 9.376C243.65 9.376 244.866 9.696 245.922 10.336C246.146 10.496 246.37 10.784 246.594 11.2C246.85 11.584 247.042 11.888 247.17 12.112C246.946 12.208 246.626 12.368 246.21 12.592C245.826 12.784 245.49 12.896 245.202 12.928C244.754 12.992 244.082 13.024 243.186 13.024C242.322 13.024 241.666 13.04 241.218 13.072C240.194 13.168 239.378 13.52 238.77 14.128C238.194 14.704 237.906 15.408 237.906 16.24C237.906 16.88 238.098 17.536 238.482 18.208C239.346 19.648 240.546 21.296 242.082 23.152C243.234 24.592 243.81 26.08 243.81 27.616C243.81 28.448 243.618 29.328 243.234 30.256C241.922 33.456 239.65 35.056 236.418 35.056Z" fill="#181719"/>
</svg>
